<svg xmlns="http://www.w3.org/2000/svg" version="1.0" preserveAspectRatio="xMidYMid meet" viewBox="128.15 364.26 758.15 260.74">

<g transform="translate(0.000000,1024.000000) scale(0.100000,-0.100000)" fill="#000000" stroke="none">
<path d="M2275 6594 c-11 -2 -45 -9 -75 -15 -30 -6 -93 -29 -139 -51 -104 -49 -228 -167 -284 -268 -123 -224 -107 -503 41 -702 116 -157 271 -247 464 -270 82 -10 109 -9 183 6 261 51 464 237 531 486 24 89 23 255 -1 335 -66 224 -234 393 -455 459 -54 16 -226 30 -265 20z"/>
<path d="M5611 5905 c-7 -10 -68 -165 -291 -745 -67 -173 -137 -354 -156 -401 -19 -48 -34 -89 -34 -93 0 -3 60 -6 134 -6 l134 0 48 133 49 132 248 0 249 0 50 -132 50 -133 134 0 c75 0 134 4 134 9 0 15 -469 1222 -479 1233 -10 11 -262 14 -270 3z m228 -548 c45 -120 81 -220 81 -222 0 -3 -79 -5 -175 -5 -127 0 -175 3 -175 12 0 9 47 138 166 458 7 18 -3 42 103 -243z"/>
<path d="M6480 5288 l0 -628 115 0 115 0 0 46 0 46 39 -31 c93 -74 210 -103 331 -81 197 34 331 180 361 391 11 75 10 98 -5 174 -31 162 -110 271 -243 337 -65 32 -72 33 -188 33 -112 0 -124 -2 -172 -27 -29 -16 -68 -42 -88 -59 l-35 -31 0 228 0 229 -115 0 -115 0 0 -627z m575 71 c115 -54 173 -212 131 -353 -19 -62 -56 -110 -113 -143 -82 -47 -210 -32 -287 36 -61 54 -92 201 -63 302 43 146 199 220 332 158z"/>
<path d="M7590 5288 l0 -628 120 0 120 0 0 624 0 625 -120 3 -120 3 0 -627z"/>
<path d="M3738 5833 c-2 -43 -3 -323 -3 -623 l0 -545 123 0 c67 0 122 3 122 8 0 4 0 284 0 622 l0 615 -119 0 -119 0 -4 -77z"/>
<path d="M8355 5579 c-230 -26 -385 -218 -385 -476 0 -92 20 -176 57 -246 33 -59 132 -153 188 -178 238 -105 508 -30 609 169 14 28 26 55 26 59 0 4 -51 7 -112 5 -106 -3 -114 -5 -137 -29 -79 -84 -239 -83 -325 3 -33 33 -65 98 -66 132 l0 22 326 0 327 0 -6 98 c-6 120 -25 183 -80 264 -88 132 -243 197 -422 177z m161 -198 c41 -19 87 -69 97 -106 3 -11 8 -30 12 -42 l6 -23 -209 0 -210 0 10 39 c12 48 65 112 110 134 45 22 133 21 184 -2z"/>
<path d="M4556 5556 c-32 -14 -74 -40 -93 -57 l-33 -33 0 52 0 52 -115 0 -115 0 0 -455 0 -455 115 0 115 0 0 263 c0 144 5 282 11 307 21 92 89 150 177 150 77 0 130 -34 163 -105 17 -36 19 -69 19 -327 l0 -288 121 0 120 0 -3 328 c-3 317 -4 329 -27 386 -29 73 -89 139 -156 173 -41 21 -68 27 -145 30 -84 3 -102 1 -154 -21z"/>
<path d="M1880 5164 c-231 -60 -434 -276 -530 -561 -41 -125 -73 -318 -68 -411 4 -60 10 -81 34 -115 17 -23 48 -52 69 -64 l40 -23 915 0 c1025 0 959 -4 1027 73 45 52 58 121 44 250 -33 301 -137 531 -317 696 -82 75 -223 148 -316 164 -62 10 -78 8 -220 -22 -179 -39 -262 -39 -438 4 -119 28 -162 30 -240 9z"/>
</g>
</svg>